<?xml version="1.0" encoding="utf-8"?>
<!-- Generator: Adobe Illustrator 24.1.0, SVG Export Plug-In . SVG Version: 6.00 Build 0)  -->
<svg version="1.1" id="Layer_1" xmlns="http://www.w3.org/2000/svg" xmlns:xlink="http://www.w3.org/1999/xlink" x="0px" y="0px"
	 viewBox="0 0 16 16" style="enable-background:new 0 0 16 16;" xml:space="preserve">
<style type="text/css">
	.st0{fill:none;stroke:#C5C5C5;stroke-linejoin:bevel;stroke-miterlimit:10;}
</style>
<path class="st0" d="M14.5,9.4V6.5H13c-0.1-0.4-0.2-0.9-0.5-1.2l1-1l-1.7-1.8l-1,0.9C10.4,3.1,9.9,3,9.5,2.9V1.5h-3v1.4
	C6,3,5.6,3.2,5.2,3.4l-1-1L2.5,4.2l1,1C3.2,5.6,3.1,6,3,6.5H1.5v3h1.4c0.1,0.5,0.2,1,0.5,1.4l-1,1l1.8,1.7l1.1-1
	c0.4,0.2,0.9,0.4,1.2,0.5v1.4h3v-1.4c0.5-0.1,0.9-0.4,1.4-0.6l1,1l1.7-1.8l-1-1c0.2-0.4,0.4-0.9,0.5-1.2h1.4V9.4z M8,10.4
	c-1.3,0-2.4-1.1-2.4-2.4S6.7,5.6,8,5.6s2.4,1.1,2.4,2.4S9.3,10.4,8,10.4z"/>
</svg>
