<?xml version="1.0" encoding="utf-8"?>
<!-- Generator: Adobe Illustrator 24.1.0, SVG Export Plug-In . SVG Version: 6.00 Build 0)  -->
<svg version="1.1" id="Layer_1" xmlns="http://www.w3.org/2000/svg" xmlns:xlink="http://www.w3.org/1999/xlink" x="0px" y="0px"
	 viewBox="0 0 96.8 132.9" style="enable-background:new 0 0 96.8 132.9;" xml:space="preserve">
<style type="text/css">
	.st0{fill:#424242;}
</style>
<path class="st0" d="M82.3,8.6h-3.9V2.5c0-1.4-1.1-2.5-2.5-2.5s-2.5,1.1-2.5,2.5v6.1H50.9V2.5c0-1.4-1.1-2.5-2.5-2.5
	s-2.5,1.1-2.5,2.5v6.1H23.5V2.5C23.5,1.1,22.4,0,21,0s-2.5,1.1-2.5,2.5v6.1h-4C6.5,8.6,0,15.1,0,23.1v95.3c0,8,6.5,14.5,14.5,14.5
	h67.8c8,0,14.5-6.5,14.5-14.5V23.1C96.8,15.1,90.3,8.6,82.3,8.6z M91.8,118.4c0,5.2-4.3,9.5-9.5,9.5H14.5c-5.2,0-9.5-4.3-9.5-9.5
	V23.1c0-5.2,4.3-9.5,9.5-9.5h4v4c-3.1,1-5.3,4-5.3,7.4c0,4.3,3.5,7.8,7.8,7.8s7.8-3.5,7.8-7.8c0-3.4-2.2-6.3-5.3-7.4v-4h22.4v4
	c-3.1,1-5.3,4-5.3,7.4c0,4.3,3.5,7.8,7.8,7.8c4.3,0,7.8-3.5,7.8-7.8c0-3.4-2.2-6.3-5.3-7.4v-4h22.5v4c-3.1,1-5.3,4-5.3,7.4
	c0,4.3,3.5,7.8,7.8,7.8s7.8-3.5,7.8-7.8c0-3.4-2.2-6.3-5.3-7.4v-4h3.9c5.2,0,9.5,4.3,9.5,9.5V118.4z M21,22.2c1.5,0,2.8,1.3,2.8,2.8
	s-1.3,2.8-2.8,2.8s-2.8-1.3-2.8-2.8S19.5,22.2,21,22.2z M48.4,22.2c1.5,0,2.8,1.3,2.8,2.8s-1.3,2.8-2.8,2.8c-1.5,0-2.8-1.3-2.8-2.8
	S46.9,22.2,48.4,22.2z M75.9,22.2c1.5,0,2.8,1.3,2.8,2.8s-1.3,2.8-2.8,2.8s-2.8-1.3-2.8-2.8S74.4,22.2,75.9,22.2z"/>
</svg>
