<?xml version="1.0" encoding="utf-8"?>
<!-- Generator: Adobe Illustrator 28.1.0, SVG Export Plug-In . SVG Version: 6.00 Build 0)  -->
<svg version="1.1" id="Layer_1"
	xmlns="http://www.w3.org/2000/svg"
	xmlns:xlink="http://www.w3.org/1999/xlink" x="0px" y="0px" viewBox="0 0 27.8 27.8" style="enable-background:new 0 0 27.8 27.8;" xml:space="preserve">
	<style type="text/css">
	.st0{fill-rule:evenodd;clip-rule:evenodd;fill:#7b7b7b;}
	</style>
	<path class="st0" d="M22.6,1.8h-2.4V0h-1.5v1.8h-3.6h-0.5V0h-1.5v1.8h-0.5H9V0H7.6v1.8H5.1L3.6,3.3v3.3v4.2v8v3.8v3.8l1.5,1.5h3.8
	h3.7h2.5H19h3.7l1.5-1.5v-3.8v-3.8v-8V6.6V3.3L22.6,1.8z M22.6,26.3H5.1v-23h2.5v0.3c-0.7,0.3-1.3,1-1.3,1.8c0,1.1,0.9,2,2,2
	s2-0.9,2-2c0-0.8-0.5-1.6-1.3-1.8V3.3h4.1v0.3c-0.7,0.3-1.3,1-1.3,1.8c0,1.1,0.9,2,2,2s2-0.9,2-2c0-0.8-0.5-1.6-1.3-1.8V3.3h4.1v0.3
	c-0.7,0.3-1.3,1-1.3,1.8c0,1.1,0.9,2,2,2c1.1,0,2-0.9,2-2c0-0.8-0.5-1.6-1.3-1.8V3.3h2.6V26.3z"/>
</svg>
